<svg xmlns="http://www.w3.org/2000/svg" viewBox="0 0 186 26" width="186" height="26" role="img" aria-label="playlists: test data"><title>playlists: test data</title><rect x="0.5" y="0.5" width="185" height="25" rx="2" fill="#1b2a32" stroke="rgba(237,244,246,0.12)"/><path fill="#b4c8d0" d="M11 9.2H13.4Q14.2 9.2 14.8 9.5Q15.4 9.8 15.7 10.3Q16.1 10.8 16.1 11.6Q16.1 12.3 15.7 12.8Q15.4 13.4 14.8 13.7Q14.2 13.9 13.4 13.9H12V17H11ZM15 11.6Q15 10.9 14.6 10.5Q14.2 10.1 13.3 10.1H12V13H13.3Q14.2 13 14.6 12.6Q15 12.3 15 11.6ZM19.2 9.2H20.2V16.6L19.7 16.1H24.1V17H19.2ZM28.9 9.2H30.2L32.6 17H31.6L29.6 10.1L27.6 17H26.6ZM28.1 13.9H31L31.4 14.9H27.8ZM37.2 13.8 34.9 9.2H36L37.7 12.7L39.4 9.2H40.5L38.2 13.8V17H37.2ZM43.7 9.2H44.6V16.6L44.1 16.1H48.5V17H43.7ZM51.6 16.1H53.5V10.1H51.6V9.2H56.4V10.1H54.5V16.1H56.4V17H51.6ZM59.3 14.5 60.3 14.4Q60.4 15 60.7 15.4Q60.9 15.8 61.3 16Q61.7 16.2 62.3 16.2Q62.8 16.2 63.2 16.1Q63.6 16 63.8 15.7Q63.9 15.4 63.9 15.1Q63.9 14.7 63.8 14.4Q63.6 14.1 63.1 13.9Q62.7 13.7 61.8 13.4Q60.9 13.2 60.5 12.9Q60 12.6 59.7 12.2Q59.5 11.8 59.5 11.2Q59.5 10.6 59.8 10.1Q60.1 9.6 60.7 9.3Q61.3 9 62.1 9Q62.9 9 63.5 9.3Q64 9.7 64.4 10.2Q64.7 10.8 64.8 11.5L63.8 11.6Q63.7 11.1 63.5 10.7Q63.3 10.4 63 10.2Q62.6 10 62.1 10Q61.4 10 60.9 10.3Q60.5 10.6 60.5 11.2Q60.5 11.6 60.7 11.8Q60.8 12 61.2 12.2Q61.6 12.4 62.4 12.6Q63.3 12.9 63.9 13.2Q64.5 13.5 64.7 14Q65 14.4 65 15.1Q65 15.7 64.6 16.2Q64.3 16.6 63.7 16.9Q63.1 17.2 62.3 17.2Q61.4 17.2 60.8 16.8Q60.2 16.5 59.8 15.9Q59.4 15.3 59.3 14.5ZM69.8 10.1H67.4V9.2H73.1V10.1H70.8V17H69.8ZM75.6 14.5 76.6 14.4Q76.7 15 76.9 15.4Q77.2 15.8 77.6 16Q78 16.2 78.6 16.2Q79.1 16.2 79.5 16.1Q79.8 16 80 15.7Q80.2 15.4 80.2 15.1Q80.2 14.7 80 14.4Q79.9 14.1 79.4 13.9Q78.9 13.7 78.1 13.4Q77.2 13.2 76.7 12.9Q76.2 12.6 76 12.2Q75.8 11.8 75.8 11.2Q75.8 10.6 76.1 10.1Q76.4 9.6 77 9.3Q77.6 9 78.4 9Q79.2 9 79.7 9.3Q80.3 9.7 80.7 10.2Q81 10.8 81.1 11.5L80.1 11.6Q80 11.1 79.8 10.7Q79.6 10.4 79.2 10.2Q78.9 10 78.4 10Q77.6 10 77.2 10.3Q76.8 10.6 76.8 11.2Q76.8 11.6 77 11.8Q77.1 12 77.5 12.2Q77.9 12.4 78.7 12.6Q79.6 12.9 80.2 13.2Q80.7 13.5 81 14Q81.2 14.4 81.2 15.1Q81.2 15.7 80.9 16.2Q80.6 16.6 79.9 16.9Q79.3 17.2 78.5 17.2Q77.7 17.2 77.1 16.8Q76.4 16.5 76.1 15.9Q75.7 15.3 75.6 14.5Z"/><circle cx="93.72" cy="13.0" r="3.5" fill="#8da7b2"/><path fill="#8da7b2" d="M107.5 10.1H105.2V9.2H110.9V10.1H108.5V17H107.5ZM113.8 9.2H118.6V10.1H114.8V12.6H118.5V13.5H114.8V16.1H118.7V17H113.8ZM121.5 14.5 122.5 14.4Q122.6 15 122.8 15.4Q123.1 15.8 123.5 16Q123.9 16.2 124.4 16.2Q125 16.2 125.3 16.1Q125.7 16 125.9 15.7Q126.1 15.4 126.1 15.1Q126.1 14.7 125.9 14.4Q125.8 14.1 125.3 13.9Q124.8 13.7 123.9 13.4Q123.1 13.2 122.6 12.9Q122.1 12.6 121.9 12.2Q121.7 11.8 121.7 11.2Q121.7 10.6 122 10.1Q122.3 9.6 122.9 9.3Q123.5 9 124.3 9Q125 9 125.6 9.3Q126.2 9.7 126.5 10.2Q126.9 10.8 127 11.5L126 11.6Q125.9 11.1 125.7 10.7Q125.5 10.4 125.1 10.2Q124.8 10 124.2 10Q123.5 10 123.1 10.3Q122.7 10.6 122.7 11.2Q122.7 11.6 122.8 11.8Q123 12 123.4 12.2Q123.8 12.4 124.5 12.6Q125.5 12.9 126.1 13.2Q126.6 13.5 126.9 14Q127.1 14.4 127.1 15.1Q127.1 15.7 126.8 16.2Q126.4 16.6 125.8 16.9Q125.2 17.2 124.4 17.2Q123.6 17.2 123 16.8Q122.3 16.5 121.9 15.9Q121.5 15.3 121.5 14.5ZM132 10.1H129.6V9.2H135.3V10.1H132.9V17H132ZM146.4 9.2H148.3Q149.3 9.2 150 9.6Q150.8 10.1 151.2 11Q151.6 11.9 151.6 13.1Q151.6 14.3 151.2 15.2Q150.8 16.1 150 16.5Q149.3 17 148.3 17H146.4ZM150.6 13.1Q150.6 11.6 150 10.9Q149.3 10.1 148.2 10.1H147.4V16.1H148.2Q149.3 16.1 150 15.3Q150.6 14.6 150.6 13.1ZM156.2 9.2H157.5L159.9 17H158.9L156.9 10.1L154.8 17H153.8ZM155.4 13.9H158.3L158.7 14.9H155.1ZM164.5 10.1H162.1V9.2H167.9V10.1H165.5V17H164.5ZM172.5 9.2H173.8L176.2 17H175.2L173.1 10.1L171.1 17H170.1ZM171.7 13.9H174.6L174.9 14.9H171.3Z"/></svg>
